<?xml version="1.0" standalone="no"?>
<!DOCTYPE svg PUBLIC "-//W3C//DTD SVG 20010904//EN"
 "http://www.w3.org/TR/2001/REC-SVG-20010904/DTD/svg10.dtd">
<svg version="1.0" xmlns="http://www.w3.org/2000/svg"
 width="512.000000pt" height="512.000000pt" viewBox="0 0 512.000000 512.000000"
 preserveAspectRatio="xMidYMid meet">
<metadata>
Created by potrace 1.16, written by Peter Selinger 2001-2019
</metadata>
<g transform="translate(0.000000,512.000000) scale(0.100000,-0.100000)"
fill="#000000" stroke="none">
<path d="M3891 4692 c-1 -18 -9 -47 -18 -65 l-18 -32 -5 45 c-6 44 -6 44 -14
15 -13 -46 -50 -106 -91 -145 -20 -19 -38 -34 -41 -32 -2 1 -18 -13 -35 -33
-45 -51 -136 -90 -299 -129 -299 -71 -529 -179 -636 -299 -59 -66 -93 -107
-88 -107 3 0 -3 -15 -12 -32 -11 -22 17 2 87 73 191 196 337 271 655 339 200
43 305 92 412 194 l43 41 -25 -69 c-83 -222 -217 -344 -486 -442 -62 -23 -63
-24 -20 -18 118 17 261 81 375 169 33 25 81 62 107 81 120 90 177 278 128 424
-16 50 -18 52 -19 22z"/>
<path d="M1301 4645 c-1 -98 52 -188 150 -261 59 -43 142 -73 299 -109 251
-56 400 -122 556 -246 83 -66 143 -146 199 -266 24 -51 46 -93 49 -93 3 0 4 6
1 13 -58 188 -76 225 -145 300 -128 140 -309 227 -675 323 -219 58 -288 95
-338 180 -4 7 29 -6 72 -29 75 -38 86 -41 183 -45 l103 -4 96 45 c216 103 497
156 769 144 251 -12 450 -58 639 -151 55 -27 109 -46 128 -46 65 0 188 32 254
65 37 19 69 32 72 29 4 -5 27 50 27 67 0 4 -26 -8 -57 -27 -71 -43 -168 -74
-249 -81 -58 -5 -68 -3 -170 45 -128 59 -204 83 -357 114 -98 20 -142 23 -357
23 -215 0 -259 -3 -358 -23 -136 -27 -256 -66 -378 -121 -100 -45 -125 -48
-229 -26 -136 29 -227 95 -265 191 l-19 49 0 -60z"/>
<path d="M1185 4625 c-14 -123 15 -233 82 -317 48 -60 199 -178 283 -222 74
-38 157 -67 281 -96 110 -26 179 -49 256 -88 88 -45 88 -57 -1 -17 -71 33
-109 45 -365 115 -64 17 -171 57 -242 90 -131 62 -144 67 -134 51 16 -28 -107
29 -147 67 -36 34 -35 17 2 -32 32 -42 92 -90 127 -100 19 -6 21 -10 12 -28
-6 -11 -8 -22 -5 -25 3 -3 -6 -19 -19 -35 -66 -78 -140 -237 -174 -371 -16
-62 -38 -241 -27 -212 2 6 19 60 37 120 56 190 138 354 221 442 20 21 28 37
24 48 -4 12 -2 15 6 12 7 -3 49 -21 93 -41 44 -19 130 -46 190 -60 93 -21 103
-25 64 -25 -67 -1 -209 25 -264 49 -57 24 -68 20 -26 -9 53 -38 134 -70 223
-87 l88 -17 -34 -37 c-112 -125 -145 -298 -82 -436 33 -71 112 -154 184 -192
157 -84 324 -61 458 61 63 57 99 114 123 192 l16 55 50 -40 c28 -22 55 -40 60
-40 6 0 40 25 76 54 l67 54 4 -43 c8 -64 60 -168 111 -218 92 -92 200 -133
326 -124 233 17 413 241 372 463 -14 72 -58 168 -100 216 l-32 36 58 12 c79
16 164 45 208 71 20 12 35 23 33 24 -2 2 -37 -6 -78 -16 -41 -11 -115 -22
-165 -24 l-90 -5 140 34 c77 19 168 46 202 60 71 30 76 31 71 14 -3 -7 14 -38
37 -69 168 -228 262 -615 201 -824 -31 -107 -112 -217 -200 -272 -96 -61 -258
-103 -398 -103 -93 0 -102 -5 -45 -27 29 -11 25 -12 -38 -8 -42 3 -62 2 -51
-3 19 -8 18 -9 -5 -15 -13 -4 -59 -7 -101 -7 -42 0 -83 -3 -92 -6 -21 -8 -10
-24 16 -24 34 0 13 -12 -27 -15 -20 -2 -42 -8 -48 -13 -7 -5 -34 -17 -61 -25
-49 -17 -49 -17 -31 3 10 11 14 20 8 20 -11 0 -87 -23 -117 -35 -14 -6 -17 -5
-12 3 4 7 5 12 1 12 -16 0 -135 -56 -180 -84 l-50 -33 -60 34 c-54 30 -257
103 -287 103 -6 0 -3 -7 8 -16 21 -17 18 -17 -61 9 -27 9 -63 19 -80 23 -28 6
-29 7 -7 13 50 13 14 26 -70 25 -73 0 -86 2 -76 13 17 21 6 24 -58 13 -32 -6
-72 -12 -88 -15 l-30 -5 24 25 23 25 -54 0 c-146 0 -311 49 -405 121 -70 53
-70 40 0 -38 47 -52 134 -104 241 -144 33 -12 62 -23 64 -25 1 -1 -20 -38 -48
-81 -152 -231 -185 -540 -82 -767 16 -37 44 -87 61 -112 16 -25 30 -47 30 -50
0 -3 -17 -4 -37 -2 -35 3 -42 9 -85 73 -175 261 -183 649 -18 909 35 55 24 61
-19 9 -109 -133 -150 -324 -117 -551 21 -141 55 -261 108 -374 23 -49 38 -91
35 -94 -11 -12 -46 17 -75 63 -65 101 -113 236 -141 398 -17 98 -19 104 -20
55 -1 -72 23 -218 49 -295 11 -34 42 -100 69 -146 39 -68 45 -85 32 -88 -42
-9 -145 164 -222 373 -24 65 -45 114 -47 108 -4 -14 64 -245 84 -283 8 -16 12
-29 9 -29 -9 0 -57 103 -82 175 -27 79 -56 204 -72 315 -7 41 -14 91 -18 110
-6 33 -6 34 -13 10 -15 -48 -11 64 5 146 21 112 49 189 100 279 25 43 43 80
41 83 -7 6 -95 -117 -122 -170 -62 -122 -123 -420 -110 -539 15 -146 124 -353
280 -529 36 -41 66 -77 66 -81 0 -4 -20 -12 -44 -19 l-45 -12 34 -32 c42 -40
50 -72 35 -136 -12 -48 -103 -203 -154 -259 l-21 -24 35 7 c184 36 303 47 460
43 147 -3 174 -7 250 -31 170 -56 325 -152 460 -285 82 -80 167 -194 190 -255
11 -31 17 -31 -78 -6 -384 98 -736 115 -993 50 l-74 -19 75 7 c119 11 405 7
520 -7 137 -17 451 -78 463 -90 5 -5 2 -19 -8 -35 -22 -34 -13 -46 68 -86 50
-25 72 -30 132 -30 60 0 81 5 131 30 95 49 98 52 79 90 -9 18 -15 33 -13 35 5
5 257 43 368 56 117 13 529 6 619 -10 71 -13 78 -6 9 9 -314 68 -718 69 -1005
0 -43 -10 -79 -17 -80 -16 -7 6 45 89 93 148 162 201 425 357 709 419 67 15
393 19 488 6 l59 -7 -31 31 c-51 50 -121 154 -138 204 -23 69 -13 128 28 171
43 44 21 44 -25 0 -55 -51 -51 -111 17 -266 l15 -35 -236 0 c-255 -1 -321 -9
-515 -70 -108 -34 -291 -124 -343 -169 -23 -19 -43 -33 -45 -31 -3 2 -36 9
-74 15 -38 6 -71 13 -73 15 -6 6 39 88 70 127 60 76 221 176 400 247 97 38
269 84 413 111 l110 20 -110 -4 c-250 -10 -557 -116 -744 -257 -45 -33 -93
-76 -107 -95 -15 -19 -30 -34 -35 -34 -19 0 -7 30 34 86 71 95 245 208 429
278 232 87 545 133 738 108 l75 -9 30 35 c190 222 296 428 336 652 19 107 17
309 -5 390 -27 103 -98 237 -174 330 l-69 86 15 39 c25 71 27 225 3 360 -41
229 -87 356 -196 539 -32 53 -56 98 -54 99 2 2 22 14 44 29 44 28 92 73 106
100 7 14 -6 9 -53 -16 -35 -19 -90 -42 -123 -52 -33 -9 -98 -33 -145 -54 -116
-50 -191 -74 -349 -110 -151 -34 -314 -98 -390 -154 -56 -41 -134 -138 -163
-203 -18 -41 -140 -163 -162 -163 -22 0 -93 84 -131 155 -21 39 -56 93 -77
120 -71 91 -233 215 -260 199 -7 -4 -8 -3 -4 5 5 7 -9 18 -39 31 -55 24 -70
25 -35 4 15 -9 18 -13 6 -9 -10 3 -71 21 -135 39 -64 18 -144 45 -179 59 -91
37 -197 112 -244 171 -48 60 -102 169 -121 244 -8 33 -22 58 -36 68 -28 20
-81 102 -81 125 0 10 -4 20 -9 24 -5 3 -13 -24 -16 -60z m865 -685 c8 -5 11
-10 5 -10 -5 0 -17 5 -25 10 -8 5 -10 10 -5 10 6 0 17 -5 25 -10z m1167 -186
c145 -70 202 -223 132 -362 -48 -97 -131 -152 -239 -159 -170 -12 -315 119
-328 296 l-4 68 58 57 c134 131 252 162 381 100z m-1069 -4 c38 -18 90 -55
128 -92 63 -60 64 -62 64 -114 0 -173 -158 -324 -325 -311 -199 15 -328 225
-242 393 72 141 229 193 375 124z m1896 -853 c59 -74 110 -175 138 -274 17
-61 22 -105 23 -203 0 -117 -2 -129 -28 -182 -15 -31 -37 -90 -48 -129 -23
-83 -69 -187 -122 -273 -32 -53 -34 -61 -20 -71 23 -17 11 -38 -49 -85 -29
-23 -66 -53 -81 -67 -15 -14 -30 -24 -32 -21 -2 2 24 47 59 100 101 155 129
234 147 423 13 136 4 280 -27 405 -21 83 -75 198 -109 230 l-26 24 30 -65 c60
-127 98 -350 81 -470 -13 -87 -11 -104 5 -44 19 75 19 12 -1 -83 -39 -189
-198 -522 -250 -522 -9 0 -14 3 -12 8 2 4 27 54 55 112 100 202 137 358 136
570 0 114 -5 161 -21 222 -24 89 -61 170 -97 213 -23 27 -22 24 9 -45 63 -138
71 -183 70 -400 0 -183 -2 -201 -27 -283 -50 -164 -157 -339 -231 -379 -23
-12 -21 -10 52 92 70 97 118 201 150 319 20 78 25 120 26 226 1 158 -20 242
-95 384 -37 71 -46 97 -37 103 7 4 16 8 20 8 19 0 169 126 208 174 25 30 48
52 51 48 3 -4 27 -33 53 -65z m-319 -352 c75 -153 87 -395 27 -566 -35 -103
-57 -143 -47 -89 18 106 23 182 17 235 -7 55 -8 48 -16 -80 -12 -209 -12 -207
-41 -264 -48 -96 -117 -156 -200 -176 l-30 -7 27 29 c54 57 148 297 161 410 7
57 -7 82 -17 32 -6 -29 -113 -259 -120 -259 -2 0 8 28 23 63 24 58 26 72 26
212 0 131 -3 159 -23 220 -29 85 -86 197 -114 222 -18 16 -18 12 6 -34 134
-267 93 -704 -84 -878 -27 -27 -52 -46 -55 -43 -4 3 3 25 15 48 12 23 19 45
16 48 -3 3 -6 1 -6 -5 0 -5 -18 -34 -40 -64 -32 -42 -51 -57 -89 -70 l-48 -17
41 42 c44 46 92 127 106 179 7 27 7 29 -3 13 -103 -163 -188 -268 -204 -253
-3 4 2 15 11 26 10 11 20 34 22 53 l5 33 -26 -37 c-14 -21 -28 -38 -30 -38 -3
0 2 17 12 38 33 75 74 205 80 255 4 28 17 66 30 86 48 71 70 199 54 316 -8 57
-8 101 0 162 11 81 10 85 -15 137 -14 29 -26 56 -26 59 0 14 23 7 37 -10 27
-34 84 -154 98 -206 l14 -52 0 50 c1 59 -30 133 -79 188 -36 42 -40 38 69 62
l74 16 39 -38 c79 -76 136 -182 173 -318 10 -35 14 -42 14 -23 1 42 -45 178
-78 231 -17 26 -53 69 -81 95 -27 26 -50 51 -50 55 0 4 10 7 23 8 12 0 60 13
107 29 l85 28 38 -42 c21 -22 53 -72 72 -111z m-1907 63 c37 -6 69 -13 70 -14
2 -1 -8 -22 -21 -46 -27 -46 -51 -124 -62 -198 -8 -59 -3 -51 33 52 46 128 79
190 100 184 9 -3 78 -15 152 -26 268 -40 344 -61 416 -116 50 -39 56 -40 75
-18 17 20 113 69 165 83 39 10 353 61 379 61 16 0 55 -78 54 -106 0 -10 -3
-13 -6 -6 -2 6 -8 12 -13 12 -4 0 -2 -21 6 -47 14 -45 11 -82 -8 -94 -5 -3 -4
-28 3 -59 16 -73 6 -192 -21 -262 -20 -51 -54 -98 -64 -87 -2 2 -20 57 -41
123 -20 65 -38 116 -41 113 -3 -2 4 -49 16 -102 30 -148 26 -227 -15 -268 -9
-10 -12 -17 -6 -17 16 0 50 50 63 91 10 35 12 37 24 21 40 -52 -24 -247 -125
-381 l-41 -55 -1 45 c-1 37 -2 40 -8 19 -17 -55 -94 -160 -132 -181 -15 -8
-16 -5 -3 36 7 25 11 45 9 45 -3 0 -31 -39 -64 -87 -62 -92 -105 -143 -121
-143 -5 0 -7 -15 -4 -32 l5 -33 -33 40 c-114 137 -305 261 -549 356 -101 39
-102 40 -50 34 138 -16 368 -132 553 -281 l67 -54 40 46 c53 60 81 120 86 185
4 40 3 47 -4 28 -12 -37 -68 -140 -89 -164 -43 -50 -49 -51 -95 -14 -45 36
-65 58 -110 123 -28 40 -29 40 -23 11 5 -28 4 -27 -13 7 -22 47 -36 62 -22 25
6 -16 11 -30 11 -33 0 -28 -131 92 -168 155 -15 25 -35 68 -45 96 l-18 50 3
-47 c3 -53 -4 -53 -33 4 -11 22 -23 37 -26 34 -5 -5 3 -28 42 -119 l16 -38
-26 17 c-31 20 -136 157 -154 202 -7 18 -18 32 -23 32 -24 0 32 -133 85 -203
20 -26 32 -47 26 -47 -32 0 -117 73 -177 154 -12 16 -22 25 -22 20 0 -14 49
-85 83 -121 17 -18 27 -33 21 -33 -52 2 -175 166 -209 279 -7 22 -4 21 40 -13
38 -29 57 -36 91 -36 24 0 44 2 44 4 0 2 -11 29 -25 61 -60 135 -68 260 -29
460 4 21 3 27 -5 20 -6 -6 -19 -46 -29 -90 -10 -43 -24 -81 -31 -83 -19 -6
-41 63 -41 127 0 68 24 142 70 214 16 26 26 47 21 47 -16 0 -63 -63 -90 -120
-22 -46 -26 -69 -26 -145 0 -99 22 -157 62 -163 18 -3 21 -12 25 -85 3 -47 16
-113 30 -154 l24 -71 -26 13 c-86 45 -160 192 -160 319 0 39 -3 47 -15 42 -14
-5 -15 6 -10 87 6 87 5 90 -9 59 -68 -147 -33 -412 84 -630 30 -55 35 -70 21
-62 -47 25 -119 145 -145 241 -8 30 -15 44 -15 33 -2 -46 36 -133 96 -221 34
-51 60 -93 57 -93 -2 0 -19 6 -37 14 -68 28 -156 167 -188 296 -20 77 -17 268
4 350 35 133 175 361 213 346 8 -3 45 -11 82 -18z m-191 -1048 c274 -35 629
-188 781 -337 37 -36 45 -46 17 -21 -73 64 -167 125 -259 168 -181 85 -299
110 -521 115 -165 3 -166 3 -45 -5 286 -18 527 -102 755 -265 50 -36 95 -65
102 -65 17 0 92 -89 119 -141 l23 -46 -71 -12 c-62 -10 -73 -10 -80 3 -11 20
-108 94 -183 138 -89 54 -220 103 -353 134 -103 25 -137 28 -282 27 -142 0
-182 -4 -284 -27 -65 -14 -121 -24 -124 -21 -3 3 6 31 21 63 54 116 57 183 11
233 l-24 25 51 13 c49 13 159 27 229 30 20 0 72 -4 117 -9z"/>
<path d="M3055 3723 c-11 -2 -33 -9 -49 -15 l-28 -11 36 -19 c22 -11 38 -28
42 -44 14 -55 -38 -104 -90 -84 -28 10 -37 23 -45 64 l-7 30 -17 -36 c-47 -99
8 -228 115 -272 94 -40 212 4 258 94 28 55 27 142 -3 195 -37 65 -143 114
-212 98z m157 -70 c28 -25 24 -77 -8 -102 -15 -12 -35 -21 -46 -21 -27 0 -68
45 -68 75 0 55 79 87 122 48z"/>
<path d="M1924 3688 c-116 -79 -125 -223 -20 -316 72 -63 180 -63 253 1 142
125 59 347 -130 347 -45 0 -63 -6 -103 -32z m87 -27 c16 -16 29 -39 29 -51 0
-29 -44 -70 -75 -70 -33 0 -75 42 -75 75 0 31 41 75 70 75 12 0 35 -13 51 -29z
m123 -117 c7 -19 -10 -44 -29 -44 -19 0 -38 28 -31 45 7 20 52 19 60 -1z"/>
<path d="M3999 2748 c32 -62 64 -142 72 -178 18 -85 17 -302 -3 -395 l-16 -70
33 38 c85 99 83 354 -4 534 -37 77 -113 183 -130 183 -5 0 17 -51 48 -112z"/>
<path d="M3666 2557 c25 -38 55 -89 65 -115 10 -26 18 -40 19 -31 0 26 -57
133 -95 175 -31 34 -30 31 11 -29z"/>
<path d="M3631 2460 c0 -3 9 -39 20 -80 16 -62 18 -67 14 -28 -3 37 -32 128
-34 108z"/>
<path d="M3224 2335 c10 -56 38 -145 45 -140 9 5 2 -193 -9 -254 -12 -67 -6
-78 12 -20 8 26 12 87 11 152 -1 87 1 106 12 97 28 -23 66 19 65 73 -1 18 -5
15 -21 -15 -11 -21 -24 -38 -29 -38 -12 0 -33 41 -55 110 -22 70 -40 90 -31
35z"/>
<path d="M3612 2200 c0 -14 2 -19 5 -12 2 6 2 18 0 25 -3 6 -5 1 -5 -13z"/>
<path d="M3701 2204 c0 -11 3 -14 6 -6 3 7 2 16 -1 19 -3 4 -6 -2 -5 -13z"/>
<path d="M3378 2140 c-3 -8 -9 -42 -12 -75 -8 -75 -61 -187 -116 -244 -33 -34
-37 -41 -20 -41 26 0 87 55 110 99 33 65 51 146 48 213 -2 35 -6 56 -10 48z"/>
<path d="M3632 1970 c0 -14 2 -19 5 -12 2 6 2 18 0 25 -3 6 -5 1 -5 -13z"/>
<path d="M3599 1858 c-14 -43 -21 -74 -17 -70 12 12 49 123 46 137 -2 6 -14
-24 -29 -67z"/>
<path d="M1995 2519 c-20 -23 -48 -65 -60 -93 -69 -150 -41 -405 52 -487 l36
-31 19 23 c36 47 88 223 61 206 -6 -4 -14 -18 -17 -32 -13 -52 -48 -135 -56
-135 -10 0 -55 74 -65 108 -6 20 -3 22 34 22 67 0 152 77 166 150 l7 35 -29
-45 c-58 -89 -133 -132 -180 -102 -23 15 -33 64 -27 128 6 57 8 62 25 54 48
-26 116 8 168 86 48 73 36 76 -27 7 -31 -34 -68 -67 -81 -74 -22 -10 -27 -9
-43 11 -14 17 -17 32 -12 54 8 37 40 104 62 129 8 9 13 19 10 22 -3 3 -22 -13
-43 -36z"/>
<path d="M3084 2515 c27 -76 13 -165 -27 -165 -12 0 -41 21 -68 49 l-47 49 -7
-36 c-8 -43 -47 -123 -69 -142 -25 -20 -53 12 -67 79 -12 54 -13 55 -19 24 -9
-41 -36 -83 -53 -83 -8 0 -33 17 -57 37 -33 28 -40 32 -31 14 15 -27 5 -62
-33 -117 l-25 -37 -16 59 c-23 82 -23 83 -24 49 -1 -33 14 -92 29 -115 7 -12
13 -13 28 -4 13 8 24 9 37 2 26 -15 76 14 119 69 l34 43 16 -25 c38 -58 105
-17 139 84 13 41 15 43 25 24 16 -29 85 -55 116 -43 36 13 48 67 32 131 -8 28
-19 56 -26 62 -10 10 -12 8 -6 -8z m-374 -250 c11 -13 9 -19 -9 -39 -24 -26
-58 -39 -66 -26 -2 4 2 28 11 54 13 38 19 44 33 36 10 -5 24 -16 31 -25z"/>
<path d="M1640 2443 c-31 -48 -71 -144 -69 -166 0 -7 8 11 18 38 19 53 51 116
77 153 9 12 14 22 10 22 -4 0 -20 -21 -36 -47z"/>
<path d="M2160 2389 c0 -62 56 -139 103 -139 11 0 29 7 39 17 10 9 19 14 21
12 54 -73 71 -89 96 -89 38 0 51 17 50 65 l-1 40 -8 -38 c-9 -46 -13 -51 -43
-43 -36 9 -44 38 -15 56 12 8 36 27 53 42 l30 28 -63 -31 c-73 -36 -79 -34
-97 38 l-12 48 -8 -42 c-3 -24 -15 -53 -25 -65 l-18 -23 -26 24 c-15 14 -37
47 -51 75 -20 43 -24 47 -25 25z"/>
<path d="M3123 2252 c-36 -88 -91 -93 -147 -13 -22 30 -26 33 -26 14 0 -28 42
-77 79 -93 24 -9 35 -9 57 2 37 17 66 69 62 109 -3 32 -3 32 -25 -19z"/>
<path d="M2887 2185 c-18 -104 -65 -158 -107 -120 -11 10 -23 34 -26 53 l-7
35 -19 -51 c-10 -28 -32 -65 -48 -81 -24 -26 -25 -31 -10 -31 20 0 60 44 60
66 0 19 7 18 37 -6 33 -25 54 -25 86 1 32 25 50 79 45 139 l-3 45 -8 -50z"/>
<path d="M2161 2147 c-1 -69 41 -124 103 -134 31 -5 40 -2 63 23 l26 29 42
-44 c31 -33 49 -44 71 -43 16 1 50 1 76 1 38 1 50 6 71 30 23 28 44 97 33 108
-3 3 -12 -12 -21 -33 -28 -68 -84 -113 -70 -57 l6 27 -20 -25 -20 -24 -19 45
c-11 25 -22 52 -26 60 -3 8 -3 -13 0 -47 5 -53 3 -63 -10 -63 -23 0 -82 63
-110 118 l-25 47 -1 -47 c0 -49 -24 -88 -54 -88 -28 0 -75 51 -95 103 l-20 52
0 -38z"/>
<path d="M1596 2065 c-3 -9 -6 -22 -5 -28 0 -7 5 -1 10 12 5 13 8 26 5 28 -2
2 -6 -3 -10 -12z"/>
<path d="M1582 1990 c0 -19 2 -27 5 -17 2 9 2 25 0 35 -3 9 -5 1 -5 -18z"/>
<path d="M2931 1957 c-2 -25 -38 -94 -61 -117 -45 -45 -100 -10 -101 65 l0 40
-24 -52 c-28 -63 -64 -90 -95 -73 -19 10 -21 17 -15 53 l6 42 -19 -24 -19 -24
-12 33 c-14 43 -22 35 -12 -12 7 -28 4 -42 -11 -67 -42 -66 -94 -49 -159 51
l-39 61 0 -42 c0 -46 -33 -91 -68 -91 -28 0 -70 43 -98 102 l-26 53 5 -49 c6
-58 30 -95 79 -119 33 -16 40 -17 72 -3 19 8 40 23 47 34 11 18 14 17 50 -19
52 -52 102 -54 149 -8 29 29 32 30 49 15 25 -23 68 -20 96 8 l23 23 21 -20
c31 -31 84 -28 121 8 34 32 54 88 47 125 -2 15 -5 18 -6 7z"/>
<path d="M2018 1867 c8 -9 21 -19 30 -22 10 -3 25 -19 34 -35 17 -29 59 -54
82 -48 8 2 6 22 -6 63 l-18 60 4 -54 3 -55 -28 32 c-16 18 -29 39 -29 47 0 18
-17 20 -22 3 -3 -9 -13 -7 -34 6 -23 15 -26 16 -16 3z"/>
<path d="M3010 1735 c-28 -25 -54 -45 -58 -45 -5 0 -7 17 -5 38 l3 37 -14 -45
c-8 -25 -17 -53 -21 -62 -19 -46 79 14 123 75 19 26 31 47 28 47 -3 0 -28 -20
-56 -45z"/>
<path d="M2240 1740 c1 -25 36 -94 59 -114 27 -25 83 -26 109 -3 17 16 20 14
53 -36 19 -30 50 -60 71 -72 35 -18 40 -19 65 -5 15 9 41 34 58 57 20 28 35
40 45 36 47 -19 87 -14 120 13 35 30 60 79 60 116 -1 18 -6 14 -22 -20 -28
-58 -72 -94 -112 -90 -28 3 -31 7 -36 43 l-5 40 -28 -57 c-15 -31 -44 -70 -63
-87 -33 -30 -36 -30 -64 -16 -39 20 -85 78 -120 150 l-29 60 -3 -54 c-4 -63
-21 -81 -65 -65 -18 6 -40 29 -60 64 -18 30 -33 48 -33 40z"/>
<path d="M1515 1399 c-104 -14 -102 -20 5 -13 128 7 312 -11 438 -42 177 -44
305 -107 441 -217 53 -43 69 -52 54 -31 -92 127 -308 244 -533 289 -96 19
-314 27 -405 14z"/>
<path d="M1488 1316 c-74 -14 -183 -45 -176 -51 2 -2 32 3 68 11 105 24 358
29 465 10 137 -26 277 -72 414 -137 130 -62 141 -55 28 18 -81 53 -180 95
-302 130 -76 21 -116 26 -255 29 -110 2 -191 -1 -242 -10z"/>
<path d="M2374 4514 c-85 -14 -258 -66 -284 -85 -12 -9 -11 -10 5 -4 11 4 72
21 135 38 109 29 125 31 310 31 205 1 309 -14 456 -64 86 -30 77 -16 -13 18
-200 76 -412 99 -609 66z"/>
<path d="M2493 4443 c37 -2 97 -2 135 0 37 2 6 3 -68 3 -74 0 -105 -1 -67 -3z"/>
<path d="M2368 4433 c6 -2 18 -2 25 0 6 3 1 5 -13 5 -14 0 -19 -2 -12 -5z"/>
<path d="M2718 4433 c7 -3 16 -2 19 1 4 3 -2 6 -13 5 -11 0 -14 -3 -6 -6z"/>
<path d="M2375 4385 c-49 -8 -110 -21 -135 -29 l-45 -16 45 6 c166 20 218 24
320 24 104 0 256 -12 335 -25 61 -10 -12 14 -92 30 -109 23 -317 28 -428 10z"/>
<path d="M2387 4305 c-82 -14 -222 -53 -215 -60 2 -2 27 2 55 9 143 38 472 46
626 16 95 -18 77 -4 -25 20 -117 28 -326 36 -441 15z"/>
<path d="M2445 4230 c-24 -4 21 -7 115 -7 107 -1 143 2 115 8 -47 9 -174 9
-230 -1z"/>
<path d="M2465 4169 c-38 -4 -88 -13 -110 -18 l-40 -11 49 5 c27 3 126 5 220
6 103 1 158 4 139 9 -57 13 -186 18 -258 9z"/>
<path d="M3065 4131 c-147 -53 -264 -138 -370 -271 -49 -62 -101 -148 -93
-155 2 -2 30 33 63 77 120 163 243 266 395 332 94 41 96 49 5 17z"/>
<path d="M2101 4073 c184 -93 274 -184 360 -362 28 -56 52 -101 55 -98 8 8
-36 129 -68 184 -56 100 -172 209 -278 263 -39 20 -145 60 -158 60 -3 0 37
-21 89 -47z"/>
<path d="M2451 4039 c-24 -5 -47 -11 -50 -15 -3 -3 12 -2 34 2 49 9 196 10
250 1 l40 -6 -40 14 c-45 15 -167 17 -234 4z"/>
<path d="M3021 4000 c-115 -53 -248 -176 -300 -278 -39 -77 -40 -93 -1 -27 60
103 173 210 304 289 66 40 65 46 -3 16z"/>
<path d="M3182 3994 c-30 -13 -58 -22 -63 -19 -12 8 -162 -71 -185 -97 -12
-14 -14 -18 -4 -13 8 5 39 24 69 42 30 18 58 30 64 26 6 -3 7 -1 4 4 -4 6 0
14 9 17 22 8 26 8 19 -4 -3 -5 11 -2 32 6 54 23 113 54 113 59 0 6 5 8 -58
-21z"/>
<path d="M2105 3974 c99 -60 173 -125 236 -207 32 -43 59 -83 59 -89 0 -6 3
-9 6 -5 3 3 -9 33 -27 67 -42 80 -164 195 -251 238 -87 42 -97 41 -23 -4z"/>
<path d="M2553 3923 c15 -2 37 -2 50 0 12 2 0 4 -28 4 -27 0 -38 -2 -22 -4z"/>
<path d="M3665 3838 c247 -358 107 -855 -270 -952 -76 -20 -233 -21 -310 -1
-101 25 -214 87 -278 152 -56 56 -116 162 -186 326 -18 42 -23 47 -39 38 -23
-12 -52 -56 -133 -201 -42 -76 -83 -134 -119 -170 -209 -207 -629 -219 -811
-24 -142 153 -208 383 -165 576 19 85 61 180 113 253 32 45 33 47 8 25 -47
-42 -104 -139 -132 -224 -37 -114 -39 -277 -4 -384 26 -79 77 -165 137 -232
l38 -41 -40 21 c-38 21 -37 20 18 -33 69 -67 136 -100 248 -123 203 -41 440
15 592 139 l58 47 21 -41 c27 -55 36 -43 10 15 -11 25 -16 48 -12 50 4 3 16
-23 26 -57 16 -59 124 -317 132 -317 2 0 19 35 39 78 19 42 63 118 96 169 l62
92 46 -35 c113 -86 219 -129 362 -147 118 -15 240 1 325 43 60 30 190 137 148
123 -13 -5 -3 12 28 47 96 106 141 231 140 385 0 163 -55 319 -149 421 l-45
49 46 -67z m-1049 -575 c16 -32 49 -95 75 -140 l47 -82 -21 -40 c-11 -22 -22
-40 -23 -38 -1 1 3 21 9 45 10 39 9 48 -13 89 -36 68 -93 151 -84 123 14 -43
9 -211 -11 -317 -10 -57 -21 -103 -25 -103 -8 0 -25 270 -23 383 0 37 -1 67
-2 67 -2 0 -22 -29 -45 -65 -23 -36 -44 -65 -47 -65 -6 0 67 131 94 168 13 17
28 32 33 32 5 0 21 -26 36 -57z m-176 -173 c-6 -11 -13 -20 -16 -20 -2 0 0 9
6 20 6 11 13 20 16 20 2 0 0 -9 -6 -20z"/>
<path d="M2737 3828 c-19 -24 -42 -54 -50 -69 -18 -27 -59 -139 -52 -139 3 0
23 37 46 83 23 45 55 101 71 125 16 23 27 42 24 42 -2 0 -20 -19 -39 -42z"/>
<path d="M1167 3440 c-16 -182 34 -323 158 -447 77 -77 177 -134 260 -148 36
-6 33 -3 -35 32 -100 51 -234 182 -279 272 -42 83 -71 197 -72 285 0 47 -3 64
-9 51 -6 -17 -8 -14 -12 15 -2 21 -7 -4 -11 -60z"/>
<path d="M3931 3457 c-2 -65 -31 -188 -60 -252 -54 -118 -139 -207 -281 -295
-103 -64 -104 -65 -61 -56 87 16 214 95 292 179 93 103 154 327 119 437 -7 22
-8 21 -9 -13z"/>
<path d="M1092 3155 c0 -16 5 -50 12 -75 12 -45 12 -45 -30 -95 -97 -117 -171
-261 -194 -382 -16 -82 -8 -258 16 -353 l19 -75 6 195 c7 212 17 264 72 385
33 71 128 214 153 228 11 7 10 15 -6 48 -11 21 -27 65 -34 97 -10 38 -14 47
-14 27z"/>
<path d="M3760 2890 c-9 -6 -10 -10 -3 -10 6 0 15 5 18 10 8 12 4 12 -15 0z"/>
<path d="M1213 2787 c-77 -116 -122 -257 -130 -407 -6 -118 5 -173 59 -292 37
-82 59 -91 48 -20 -5 26 -12 103 -16 172 -7 104 -9 117 -15 80 -4 -25 -8 -74
-9 -110 -1 -86 -18 -59 -26 43 -14 164 35 386 124 560 2 4 0 7 -5 7 -4 0 -18
-15 -30 -33z"/>
<path d="M1282 2693 c-48 -93 -68 -159 -82 -273 -9 -75 -4 -218 7 -206 2 2 11
62 19 132 16 141 41 253 75 330 35 81 39 94 30 94 -5 0 -27 -35 -49 -77z"/>
<path d="M1545 2608 c-47 -55 -99 -149 -125 -224 -24 -69 -41 -228 -31 -299 6
-46 7 -41 13 50 12 173 77 357 174 493 27 37 8 25 -31 -20z"/>
<path d="M1411 2050 c0 -25 6 -72 14 -103 14 -55 60 -157 70 -157 3 0 -3 17
-14 38 -25 49 -52 143 -61 212 l-7 55 -2 -45z"/>
<path d="M3450 1350 c-109 -10 -243 -42 -331 -79 -80 -34 -221 -125 -264 -172
-30 -32 -30 -32 30 8 129 87 326 171 470 202 80 17 213 31 299 31 44 0 77 2
75 4 -10 9 -202 13 -279 6z"/>
<path d="M3480 1274 c-266 -32 -443 -91 -587 -198 -70 -51 -84 -69 -25 -32
122 77 290 142 456 176 131 27 311 43 414 38 52 -3 76 -1 62 4 -25 9 -266 18
-320 12z"/>
<path d="M2765 1142 c-22 -21 -49 -49 -60 -62 -10 -14 9 2 43 35 56 54 67 66
60 65 -2 -1 -21 -18 -43 -38z"/>
</g>
</svg>